<svg width="1656" height="625" viewBox="0 0 1656 625" fill="none" xmlns="http://www.w3.org/2000/svg">
<path d="M649 670.859H1248L1057.89 522.43L1003.57 488.858L960.57 442.651L929.64 451.138L649 642.003V670.859Z" fill="url(#paint0_linear_207_4184)"/>
<path d="M929.64 451.138L649 642.003V670.859H712.37L747.827 633.893L777.815 621.257H837.036L983.014 536.009L777.815 606.169L811.952 578.633L831.189 576.935L838.733 556.755L948.5 476.033L867.024 518.658L960.57 442.651L929.64 451.138Z" fill="url(#paint1_linear_207_4184)"/>
<path d="M899.086 670.859L1104.85 529.219L1151.06 515.451L1272.33 414.927L1304.77 374L1339.09 381.355L1488.84 511.679L1634.26 576.558L1650.66 593.533L1781.55 670.294L899.086 670.859Z" fill="url(#paint2_linear_207_4184)"/>
<path d="M1151.06 515.451L1104.85 529.219L921.53 655.394H1237.44L1308.35 629.933L1340.23 574.672L1301.75 602.208L1148.23 625.218L1349.28 547.891L1274.97 522.43L1335.13 477.542L1284.21 498.1L1275.91 491.688L1252.53 499.609L1270.82 483.012L1189.16 527.333L1346.83 421.528L1288.93 444.349L1306.84 423.036L1248 457.173L1316.84 390.031L1304.77 374L1272.33 414.927L1151.06 515.451Z" fill="url(#paint3_linear_207_4184)"/>
<path d="M1375.68 670.859L1539.01 571.278L1687.44 457.174L1746.29 461.323L1810.79 535.443L1919.99 594.476L1939.23 612.959L2029 670.294L1375.68 670.859Z" fill="url(#paint4_linear_207_4184)"/>
<path d="M1748.93 581.839L1556.18 637.854L1589.75 599.945L1620.49 597.493L1637.09 568.26L1728.93 494.14L1678.01 514.697L1679.71 492.631L1746.29 461.323L1687.44 457.174L1539.01 571.278L1375.68 670.859L1603.51 670.671L1748.93 581.839Z" fill="url(#paint5_linear_207_4184)"/>
<g clip-path="url(#clip0_207_4184)">
<path d="M1177.48 534.286C1176.96 534.724 1176.32 535.019 1175.65 535.142C1174.98 535.265 1174.28 535.213 1173.63 534.99L1176.87 532.88C1176.08 531.989 1175.48 530.947 1175.1 529.819C1174.73 528.691 1174.59 527.498 1174.69 526.315C1174.73 524.538 1174.4 522.773 1173.72 521.128C1173.04 519.483 1172.03 517.993 1170.75 516.75C1167.35 513.321 1163.35 510.533 1158.94 508.521C1146.59 502.602 1133.17 499.183 1119.47 498.463C1118.14 498.449 1116.85 497.99 1115.82 497.161C1114.78 496.331 1114.06 495.18 1113.76 493.891C1112.66 489.568 1113.05 485.003 1114.87 480.926C1113.07 479.989 1111.64 478.466 1110.83 476.612C1111.36 477.558 1112.12 478.353 1113.05 478.923C1113.98 479.494 1115.03 479.82 1116.12 479.871C1117.53 479.937 1118.95 479.875 1120.35 479.684C1120.9 479.661 1121.43 479.443 1121.85 479.07C1122.26 478.697 1122.52 478.192 1122.59 477.644C1122.65 477.13 1122.52 476.613 1122.23 476.183C1121.94 475.754 1121.51 475.441 1121.01 475.299C1119.47 474.713 1117.92 474.174 1116.29 473.705C1114.66 473.236 1113.33 473.002 1111.85 472.65C1111.86 472.525 1111.86 472.4 1111.85 472.275C1127.88 473.33 1142.97 478.511 1158.21 483.13C1158.32 482.997 1158.39 482.84 1158.43 482.672C1158.46 482.504 1158.45 482.331 1158.41 482.166C1158.36 482.001 1158.28 481.849 1158.16 481.723C1158.04 481.597 1157.9 481.501 1157.74 481.442C1156.82 480.903 1155.89 480.387 1154.93 479.942C1146.61 476.292 1137.89 473.647 1128.95 472.064C1124.88 471.22 1120.82 470.54 1116.73 469.72C1130.51 470.924 1144.17 473.277 1157.55 476.753L1157.83 476.378C1157.05 475.909 1156.27 475.393 1155.47 474.971C1150.71 472.712 1145.65 471.133 1140.45 470.282C1132.72 468.854 1124.91 467.86 1117.07 467.305C1112.06 466.784 1107.01 466.911 1102.04 467.68C1099.57 468.347 1096.98 468.515 1094.44 468.172C1093.86 468.184 1093.29 468.363 1092.81 468.688C1090.02 470.048 1087.4 471.431 1084.76 472.814C1084.52 472.955 1084.19 473.213 1084.19 473.424C1084.24 473.86 1084.19 474.301 1084.05 474.717C1083.91 475.133 1083.68 475.514 1083.38 475.832C1083.07 476.151 1082.7 476.401 1082.29 476.564C1081.88 476.727 1081.44 476.8 1081 476.776C1081.07 477.625 1081.39 478.434 1081.92 479.098C1082.46 479.763 1083.18 480.253 1084 480.504C1084.96 480.855 1085.97 481.045 1087 481.067C1089.79 481.123 1092.51 481.933 1094.86 483.411C1098.1 485.334 1101.31 486.975 1105.23 485.568C1104.24 486.326 1103.08 486.836 1101.84 487.056C1100.61 487.276 1099.34 487.2 1098.15 486.834C1098.08 486.995 1098.01 487.159 1097.96 487.327C1096.56 492.943 1096.12 498.751 1096.66 504.512C1096.9 508.091 1098.32 511.492 1100.7 514.194C1105.05 518.978 1108.95 524.15 1112.34 529.644C1114.76 533.115 1116.21 537.159 1116.55 541.367C1116.57 544.414 1117.71 547.349 1119.76 549.619C1119.96 549.852 1120.08 550.137 1120.11 550.44C1120.78 554.61 1120.78 558.86 1120.11 563.03C1120.02 564.156 1119.6 565.231 1118.89 566.117C1118.19 567.002 1117.23 567.658 1116.14 568H1123.04C1123.04 566.031 1123.04 564.132 1123.04 562.209C1123.23 558.763 1123.47 555.176 1123.8 551.847C1123.92 551.024 1124.19 550.23 1124.6 549.502C1125.54 547.87 1126.12 546.056 1126.29 544.182C1126.46 542.309 1126.22 540.421 1125.59 538.647C1125.49 538.28 1125.49 537.89 1125.59 537.522C1125.83 536.514 1126.16 535.506 1126.44 534.497C1127.23 531.75 1127.03 528.814 1125.88 526.198L1124.17 522.494C1127.58 526.761 1129.49 528.66 1127.22 535.74C1133.5 535.248 1139.03 538.085 1145.05 539.397C1144.98 535.456 1146.06 531.577 1148.17 528.238C1148.2 528.456 1148.2 528.676 1148.17 528.894C1146.75 532.508 1146.26 536.417 1146.75 540.265C1146.82 540.839 1147.03 541.386 1147.37 541.859C1149.73 545.399 1152.3 548.893 1154.83 552.386C1155.04 552.631 1155.18 552.934 1155.22 553.256C1155.25 553.578 1155.19 553.904 1155.04 554.191C1153.46 557.966 1151.93 561.764 1150.32 565.562C1150.11 566.09 1149.79 566.57 1149.38 566.972C1148.97 567.375 1148.49 567.693 1147.96 567.906H1155.54C1155.75 567.109 1155.92 566.406 1156.15 565.726C1157.41 562.186 1158.52 558.692 1161.89 556.348C1161.96 556.308 1162.02 556.254 1162.06 556.189C1162.11 556.124 1162.14 556.05 1162.15 555.973C1162.37 554.074 1163 552.128 1161.52 550.393C1161.23 549.981 1161.08 549.488 1161.09 548.986C1161.2 546.25 1161.95 543.576 1163.29 541.179C1163.85 539.92 1164.81 538.875 1166.03 538.202C1166.64 537.845 1167.21 537.437 1167.75 536.983C1167.21 535.928 1166.73 534.99 1166.24 534.052L1166.52 533.888L1168.1 535.06C1168.24 535.206 1168.4 535.318 1168.58 535.39C1168.76 535.461 1168.96 535.489 1169.16 535.47C1169.35 535.452 1169.54 535.388 1169.71 535.285C1169.87 535.181 1170.01 535.04 1170.11 534.873C1170.66 534.283 1171.24 533.727 1171.86 533.208C1173.28 538.788 1174.88 540.241 1179.39 540.241C1180.37 540.289 1181.34 540.036 1182.16 539.515C1182.99 538.994 1183.63 538.232 1184 537.334L1177.48 534.286ZM1090.21 476.237L1085.49 474.432C1085.85 473.969 1086.37 473.657 1086.95 473.557C1087.53 473.457 1088.13 473.577 1088.63 473.893C1089.13 474.025 1089.57 474.337 1089.87 474.768C1090.16 475.2 1090.28 475.722 1090.21 476.237ZM1094.65 477.808C1094.2 477.808 1093.82 477.245 1093.59 477.058C1093.59 475.651 1094.37 474.713 1095.22 474.713C1096.07 474.713 1096.61 475.088 1096.61 475.956C1096.61 476.823 1095.48 477.949 1094.65 477.808ZM1102.54 478.16C1102.18 478.554 1101.78 478.915 1101.36 479.238C1102.52 481.301 1102.52 481.301 1101.19 481.887C1101.71 482.872 1101.19 483.575 1100.44 484.232C1099.93 484.629 1099.3 484.845 1098.65 484.845C1098.01 484.845 1097.38 484.629 1096.87 484.232L1100.11 480.129C1099.82 479.426 1099.35 478.84 1099.45 478.324C1099.54 477.808 1101.05 476.659 1101.81 476.753C1101.98 476.744 1102.14 476.783 1102.29 476.866C1102.44 476.949 1102.56 477.072 1102.63 477.221C1102.71 477.37 1102.74 477.537 1102.73 477.704C1102.71 477.871 1102.65 478.029 1102.54 478.16ZM1096.71 472.861C1098.81 471.501 1100.01 471.572 1101.24 473.166C1100.51 473.47 1099.72 473.601 1098.94 473.548C1098.15 473.495 1097.39 473.26 1096.71 472.861ZM1103.04 471.923L1096.47 470.751C1096.28 469.368 1096.47 469.204 1097.67 469.509C1098.88 469.813 1100.6 470.306 1102.04 470.798C1102.47 471.05 1102.85 471.366 1103.18 471.736L1103.04 471.923ZM1173.89 557.802C1173.49 555.885 1173.23 553.941 1173.11 551.987C1173.38 549.895 1174.4 547.97 1175.99 546.572C1171.27 546.243 1168.72 543.266 1166.55 539.538C1164.17 542.036 1162.65 545.223 1162.22 548.635C1162.44 548.774 1162.67 548.892 1162.91 548.986C1164.3 549.399 1165.54 550.185 1166.51 551.256C1167.48 552.328 1168.13 553.644 1168.39 555.059L1168.53 555.387C1169.8 558.353 1170.46 561.542 1170.47 564.765C1170.47 566.523 1169.85 567.555 1168.67 568.047H1175.12C1174.65 564.53 1174.22 561.154 1173.82 557.802H1173.89Z" fill="#451344"/>
<path d="M1114.8 552.339V552.573C1114.8 554.425 1113.85 555.105 1112.11 554.472C1111.87 554.472 1111.68 554.05 1111.59 553.792C1111.42 553.279 1111.1 552.822 1110.69 552.474C1110.27 552.126 1109.76 551.901 1109.22 551.823C1105.79 551.174 1102.74 549.223 1100.72 546.384C1099.63 544.951 1098.63 543.447 1097.75 541.883C1096.64 539.855 1095.08 538.106 1093.19 536.772C1092.62 536.444 1092.16 535.972 1091.85 535.405C1091.53 534.839 1091.37 534.198 1091.39 533.551C1091.41 532.904 1091.61 532.274 1091.96 531.727C1092.3 531.18 1092.79 530.736 1093.38 530.441C1096.15 528.807 1098.65 526.759 1100.79 524.369C1101.64 523.565 1102.55 522.828 1103.51 522.166C1103.66 522.085 1103.83 522.044 1104 522.044C1104.18 522.044 1104.35 522.085 1104.5 522.166C1106.94 524.165 1108.75 526.806 1109.74 529.785C1109.74 530.019 1109.58 530.442 1109.39 530.723C1108.74 531.528 1108.13 532.366 1107.57 533.231C1107.29 533.895 1106.83 534.466 1106.23 534.881C1105.64 535.295 1104.94 535.536 1104.22 535.576C1103.28 535.634 1102.34 535.634 1101.41 535.576C1100.99 535.536 1100.57 535.626 1100.21 535.831C1099.84 536.037 1099.55 536.349 1099.38 536.725C1099.17 537.1 1099.09 537.533 1099.15 537.957C1099.22 538.381 1099.42 538.772 1099.73 539.069C1102.33 541.625 1104.88 544.227 1107.59 546.665C1108.61 547.318 1109.72 547.824 1110.88 548.166L1112.18 548.682C1114.68 549.526 1114.8 549.713 1114.8 552.339Z" fill="#451344"/>
<path d="M1083.48 473.189C1083.69 474.971 1082.84 475.956 1081.12 475.909C1080.79 473.893 1081 473.705 1083.48 473.189Z" fill="black"/>
</g>
<path d="M1652.29 548.571L1642.83 518L1635.61 547.068L1631.37 528.775L1625.4 552.079L1621.91 544.311L1614.94 563.105L1605.73 533.787L1601.25 552.33L1598.26 544.562L1594.03 561.601L1586.31 528.525L1579.09 562.103L1573.11 543.81L1569.62 553.583L1564.15 527.522L1557.42 552.831L1552.69 538.297L1547.71 559.346L1534.77 566.864L1525.3 525.768L1517.09 555.337L1513.85 545.063L1507.63 566.613L1500.4 538.798L1494.93 555.086L1487.21 527.272L1479.24 555.838L1474.26 545.314L1469.53 556.59L1462.81 535.04L1458.33 546.817L1453.35 524.265L1439.15 565.36L1432.43 547.569L1428.2 558.093L1422.22 534.037L1414.5 559.847L1410.52 550.576L1403.05 566.112L1389.6 567.365L1383.88 552.831L1378.65 565.36L1371.68 545.314L1367.69 558.093L1360.22 529.276L1350.76 557.592L1344.54 543.309L1338.06 559.597L1330.59 532.784L1325.86 559.847L1323.62 550.075L1318.39 567.114L1305.94 569.119L1296.23 538.798L1289.76 560.85L1285.77 549.323L1278.8 570.873L1272.08 538.297L1265.86 561.852L1261.62 547.318L1256.39 560.098L1249.67 535.04L1237.47 575.383L1228.51 553.583L1224.77 563.606L1219.29 554.084L1213.57 563.857L1206.6 541.304L1200.87 559.597L1198.63 550.826L1188.92 574.381L1182.19 545.063L1178.21 564.107L1174.72 553.833L1167.5 573.379L1158.54 544.311L1153.81 559.096L1150.32 552.079L1145.09 563.355L1138.87 547.819L1132.64 566.112L1129.16 558.093L1123.43 573.379L1116.46 549.072L1110.98 565.36L1108.24 557.592L1100.03 578.892L1093.3 554.334L1088.57 573.128L1081.6 554.836L1077.12 563.857L1073.14 546.566L1067.41 566.864L1063.43 556.089L1059.94 564.358L1055.21 547.569L1044.5 576.135L1039.77 559.847L1036.29 568.618L1031.55 553.332L1027.32 565.611L1022.59 545.564L1015.37 572.376L1008.4 576.386L1003.67 557.843L999.684 568.367L996.198 562.353L992.712 568.117L986.487 547.569L977.772 577.889L971.797 563.105L965.821 578.39L958.849 557.592L954.616 569.871L948.64 552.58L943.162 569.369L941.669 563.857L935.942 577.138L930.962 560.85L925.733 576.135L910.794 578.14L905.067 562.353L901.083 570.873L896.85 555.587L893.115 569.369L890.874 564.107L885.397 579.643L879.919 555.086L875.935 568.618L872.698 562.854L868.465 572.376L861.742 558.093L855.767 569.369L851.534 559.847L846.803 569.871L840.08 545.564L834.104 566.363V542.808L824.394 570.121L814.932 539.55L807.96 568.618L803.478 550.075L797.752 573.629L794.017 565.611L787.045 584.404L778.081 555.086L773.351 573.88L770.612 565.861L766.13 583.151L758.411 550.075L751.19 583.402L745.464 565.36L741.978 574.882L736.251 549.072L729.777 574.131L725.046 559.597L719.817 580.646L706.87 588.163L697.408 547.318L689.191 576.636L685.955 566.613L679.73 588.163L672.758 560.098L667.28 576.386L659.313 548.571L651.345 577.388L646.365 566.864L641.634 577.889L634.911 556.339L630.679 568.117L625.45 545.564L611.257 586.66L604.784 569.119L600.302 579.393L594.575 555.337L586.607 581.397L582.623 571.875L575.154 587.662L561.957 588.664L555.981 574.131L550.752 586.66L543.781 566.613L539.797 579.393L532.327 550.826L522.865 579.142L516.641 564.608L510.416 580.896L502.946 554.334L498.215 581.147L495.725 571.374L490.746 588.664L478.047 590.418L468.336 560.349L462.112 582.149L458.128 570.873L450.907 592.423L444.184 559.597L437.959 583.151L433.727 568.618L428.498 581.397L422.024 556.339L411.068 592.423H407.831L400.611 575.133L397.125 585.156L391.398 575.634L385.671 585.407L378.699 562.604L373.222 580.896L370.732 572.376L362.515 592.423H360.274L354.298 566.363L350.314 585.407L346.829 575.383L340.604 592.423H339.11L330.644 565.861L325.913 580.646L322.427 573.629L317.448 584.655L310.974 569.119L304.749 587.411L301.263 579.393L296.283 592.423H294.789L288.565 570.372L283.087 586.91L280.348 578.892L275.119 592.423H269.89L265.408 575.885L261.176 592.423H259.931L253.706 576.135L249.224 585.407L245.489 568.117L239.513 588.414L235.53 577.388L232.044 585.657L227.313 568.868L218.598 592.423H215.361L212.124 581.147L208.39 589.917L203.659 574.632L199.426 586.91L194.695 566.864L187.972 592.423H179.258L175.772 579.393L171.788 589.667L168.302 583.903L164.816 589.416L158.591 569.119L151.868 592.423H147.138L143.901 584.404L140.913 592.423H135.684L130.953 578.892L126.72 591.17L120.745 573.88L115.267 590.669L113.773 585.156L110.785 592.423H106.303L103.066 582.149L99.5803 592.423H80.408L77.1711 583.903L73.1873 592.172L68.9544 576.887L65.4685 590.92L62.9786 585.407L60.4887 592.423H55.5089L52.023 576.636L48.0392 590.168L44.8023 584.154L41.3164 592.423H40.0714L33.8467 579.393L28.1199 590.669L23.638 581.147L18.9072 591.17L12.4334 566.864L4.96368 592.423H-4V733H1662V521.508L1652.29 548.571Z" fill="url(#paint6_linear_207_4184)"/>
<path d="M-94.3921 582.985C-79.2284 624.685 -55.9413 675.592 -33.1958 712.96H186.136C231.627 665.302 244.625 585.151 216.464 523.413C201.3 490.378 175.305 461.134 173.68 424.308C172.056 395.605 186.136 367.444 185.595 338.741C185.595 334.409 185.595 330.076 184.512 325.744C181.804 315.454 174.222 295.958 169.348 286.21C165.015 277.003 158.517 269.421 152.56 261.298C135.771 239.094 116.275 218.515 103.819 193.061C96.7788 178.981 92.4463 163.817 89.1969 148.653L52.3708 200.102L80.532 108.036C80.532 107.495 80.532 106.953 79.9904 106.412C74.0332 77.1674 65.3682 46.84 46.4136 25.1776C31.7915 8.38918 9.58751 -1.90049 -10.9918 1.34888C-17.4905 2.432 -23.9893 4.59827 -29.4049 7.84763C-54.8582 24.0945 -60.8154 60.9206 -59.1907 92.8727C-57.566 124.825 -51.6088 157.86 -62.4401 187.646C-71.105 211.474 -90.6012 231.512 -91.6843 257.507C-92.2259 278.628 -79.77 297.583 -75.4375 318.703C-68.9388 348.489 -79.77 377.192 -90.6012 405.895L-45.1101 443.804L-29.4049 456.801L-47.2764 452.469L-101.974 438.93C-103.057 443.262 -104.682 447.595 -105.765 451.386C-116.596 494.711 -109.556 541.285 -94.3921 582.985Z" fill="#BDD358"/>
<path d="M-94.3921 582.982C-79.2284 624.683 -55.9413 675.589 -33.1958 712.957H12.8369C-1.78524 671.798 -16.4074 630.64 -30.488 589.481C-41.8607 556.987 -53.2335 523.411 -52.1504 489.292C-51.6088 476.836 -49.4426 464.922 -46.7348 453.008L-101.974 438.927C-103.057 443.26 -104.682 447.592 -105.765 451.383C-116.596 494.708 -109.556 541.282 -94.3921 582.982Z" fill="#ADBF43"/>
<path d="M29.8837 155.66L22.8948 156.51L90.4836 712.396L97.4725 711.546L29.8837 155.66Z" fill="black"/>
<path d="M198.593 618.726L197.51 620.351L198.593 619.81L245.709 594.898C235.419 634.973 219.172 675.049 195.885 712.958H171.515L95.6962 712.416C95.6962 712.416 74.0338 606.271 97.8624 470.88L144.437 519.079L106.527 429.722C124.399 354.986 157.434 274.835 215.381 200.1C215.381 200.1 287.409 372.858 254.915 555.905L198.593 618.726Z" fill="#A787C9"/>
<path d="M194.555 325.709L140.629 711.889L147.602 712.863L201.528 326.682L194.555 325.709Z" fill="black"/>
<path d="M198.051 619.269L245.166 594.357C234.877 634.433 218.63 674.508 195.343 712.417H170.973C181.804 681.549 191.01 650.138 198.051 619.269Z" fill="#906DBC"/>
<path d="M253.831 555.363L198.051 618.184C251.124 393.436 214.297 199.558 214.297 199.558C214.297 199.558 286.867 372.857 253.831 555.363Z" fill="#906DBC"/>
<path d="M209.076 657.878L209.8 658.602L209.438 658.24L184.475 645.216C189.902 666.199 198.584 687.182 210.885 707.442H223.909H264.066C264.066 707.442 275.643 651.005 262.981 579.734L258.278 558.027C248.872 518.593 231.506 476.265 201.117 436.831C201.117 436.831 163.13 528 180.496 624.233L209.076 657.878Z" fill="#E5625E"/>
<path d="M211.515 503.726L207.215 504.326L235.634 707.844L239.934 707.244L211.515 503.726Z" fill="black"/>
<path d="M179.771 624.957L209.075 658.24C181.218 539.939 200.392 437.555 200.392 437.555C200.392 437.555 162.767 528.362 179.771 624.957Z" fill="#D34444"/>
<path d="M360.662 707.442C360.3 707.804 360.3 708.165 360.3 708.165L321.589 707.804C321.589 707.804 369.344 449.132 428.314 464.326C485.475 478.798 368.621 693.332 360.662 707.442Z" fill="#E5625E"/>
<path d="M360.661 707.442H349.084C436.635 528 428.314 464.327 428.314 464.327C485.475 478.798 368.621 693.333 360.661 707.442Z" fill="#D34444"/>
<path d="M380.921 474.092C379.836 542.83 366.088 625.316 321.59 707.44H256.831C256.831 707.44 204.373 484.946 355.959 304.056C355.959 304.056 355.959 303.695 356.32 303.695C356.32 303.695 377.665 361.941 380.56 446.959L357.767 474.816L348.723 485.669L357.044 482.775L380.921 474.092Z" fill="#BDD358"/>
<path d="M334.056 402.667L286.741 707.234L291.389 707.956L338.703 403.389L334.056 402.667Z" fill="black"/>
<path d="M355.959 304.418C355.959 304.057 356.321 304.057 355.959 304.418C356.321 304.057 377.666 362.303 380.56 447.321L357.768 475.178C366.089 379.307 357.044 311.654 355.959 304.418Z" fill="#ADBF43"/>
<path d="M380.922 474.093C379.836 542.831 366.089 625.317 321.59 707.441H305.672C336.061 626.402 350.532 548.258 357.044 482.776L380.922 474.093Z" fill="#ADBF43"/>
<defs>
<linearGradient id="paint0_linear_207_4184" x1="841.294" y1="462.051" x2="949.57" y2="672.947" gradientUnits="userSpaceOnUse">
<stop offset="0.0189319" stop-color="#411144"/>
<stop offset="0.2703" stop-color="#451344"/>
<stop offset="0.5217" stop-color="#511744"/>
<stop offset="0.7724" stop-color="#651F45"/>
<stop offset="1" stop-color="#7E2845"/>
</linearGradient>
<linearGradient id="paint1_linear_207_4184" x1="644.822" y1="454.217" x2="925.979" y2="634.446" gradientUnits="userSpaceOnUse">
<stop offset="0.0119048" stop-color="#D92F27"/>
<stop offset="0.3286" stop-color="#C54C5B"/>
<stop offset="1" stop-color="#7E2845"/>
</linearGradient>
<linearGradient id="paint2_linear_207_4184" x1="1242.74" y1="429.783" x2="1376.55" y2="759.924" gradientUnits="userSpaceOnUse">
<stop offset="0.0189319" stop-color="#411144"/>
<stop offset="0.2703" stop-color="#451344"/>
<stop offset="0.5217" stop-color="#511744"/>
<stop offset="0.7724" stop-color="#651F45"/>
<stop offset="1" stop-color="#7E2845"/>
</linearGradient>
<linearGradient id="paint3_linear_207_4184" x1="1024.18" y1="458.895" x2="1304.31" y2="634.567" gradientUnits="userSpaceOnUse">
<stop offset="0.0119048" stop-color="#E15B64"/>
<stop offset="0.3286" stop-color="#C54C5B"/>
<stop offset="1" stop-color="#7E2845"/>
</linearGradient>
<linearGradient id="paint4_linear_207_4184" x1="1630.02" y1="458.861" x2="1723.52" y2="732.434" gradientUnits="userSpaceOnUse">
<stop offset="0.0189319" stop-color="#411144"/>
<stop offset="0.2703" stop-color="#451344"/>
<stop offset="0.5217" stop-color="#511744"/>
<stop offset="0.7724" stop-color="#651F45"/>
<stop offset="1" stop-color="#7E2845"/>
</linearGradient>
<linearGradient id="paint5_linear_207_4184" x1="1455.36" y1="498.708" x2="1655.14" y2="625.994" gradientUnits="userSpaceOnUse">
<stop offset="0.0119048" stop-color="#E15B64"/>
<stop offset="0.3286" stop-color="#C54C5B"/>
<stop offset="1" stop-color="#7E2845"/>
</linearGradient>
<linearGradient id="paint6_linear_207_4184" x1="830.02" y1="544.982" x2="828.022" y2="774.233" gradientUnits="userSpaceOnUse">
<stop offset="0.0189319" stop-color="#411144"/>
<stop offset="0.2703" stop-color="#451344"/>
<stop offset="0.5217" stop-color="#511744"/>
<stop offset="0.7724" stop-color="#651F45"/>
<stop offset="1" stop-color="#7E2845"/>
</linearGradient>
<clipPath id="clip0_207_4184">
<rect width="103" height="101" fill="white" transform="translate(1081 467)"/>
</clipPath>
</defs>
</svg>

